<svg width="41" height="40" viewBox="0 0 41 40" fill="none" xmlns="http://www.w3.org/2000/svg">
<path fill-rule="evenodd" clip-rule="evenodd" d="M11.3122 20.0001C5.06469 20.0001 0 14.9354 0 8.6878V0H20V20.0001H11.3122ZM4.6495 9.99996H16.8273C16.9932 11.9467 16.0574 15.8401 10.9871 15.8401C5.91705 15.8401 4.6495 11.9467 4.6495 9.99996Z" fill="#F6FAF7"/>
<path fill-rule="evenodd" clip-rule="evenodd" d="M28.7041 19.9999C34.9517 19.9999 40.0165 25.0645 40.0165 31.3122V40H20.0164V19.9999H28.7041ZM35.0447 30.2526C35.1099 31.0152 34.7699 32.1625 33.9658 33.1222C33.1711 34.0711 31.9355 34.8207 30.2229 34.8207C28.6867 34.8207 27.371 34.0734 26.4326 33.1069C25.4848 32.1301 24.9672 30.9782 24.9672 30.2283H24.3967C24.3967 31.1805 25.017 32.4673 26.0232 33.5042C27.0391 34.5508 28.494 35.3912 30.2229 35.3912C32.1211 35.3912 33.5114 34.5532 34.4031 33.4886C35.2857 32.4352 35.6932 31.1435 35.6134 30.2041L35.0447 30.2526Z" fill="#F6FAF7"/>
<path fill-rule="evenodd" clip-rule="evenodd" d="M40.0165 20.0001H31.3287C25.0812 20.0001 20.0164 14.9354 20.0164 8.6878V0H40.0165V20.0001ZM25.3088 6.65556C25.0129 7.00803 24.8953 7.422 24.9172 7.68L24.4538 7.71958C24.4194 7.31726 24.5926 6.78509 24.9524 6.35644C25.32 5.91864 25.8936 5.57488 26.6709 5.57488C27.384 5.57488 27.9795 5.92072 28.3912 6.34382C28.7949 6.75886 29.0582 7.28696 29.0582 7.69979H28.5931C28.5931 7.4523 28.4139 7.03426 28.0578 6.66818C27.7094 6.31019 27.2276 6.04004 26.6709 6.04004C26.0443 6.04004 25.5969 6.31227 25.3088 6.65556ZM32.046 7.68008C32.0241 7.42176 32.1414 7.00763 32.4361 6.65522C32.7231 6.31196 33.1685 6.04004 33.7919 6.04004C34.3457 6.04004 34.8255 6.30987 35.1722 6.66784C35.5269 7.03381 35.7055 7.45196 35.7055 7.69979H36.1706C36.1706 7.2873 35.9086 6.75928 35.5063 6.34416C35.0964 5.92104 34.5029 5.57488 33.7919 5.57488C33.017 5.57488 32.4455 5.91895 32.0791 6.35681C31.7206 6.78549 31.5483 7.31752 31.5827 7.7195L32.046 7.68008Z" fill="#4EF037"/>
<path fill-rule="evenodd" clip-rule="evenodd" d="M8.6879 19.9999H0V40H20V31.3122C20 25.0645 14.9354 19.9999 8.6879 19.9999ZM8.38467 28.1323C8.38467 29.1637 7.54848 29.9999 6.51674 29.9999C5.48527 29.9999 4.64898 29.1637 4.64898 28.1323C4.64898 27.1005 5.48527 26.2643 6.51674 26.2643C7.54848 26.2643 8.38467 27.1005 8.38467 28.1323ZM15.4321 28.1323C15.4321 29.1637 14.5957 29.9999 13.5642 29.9999C12.5325 29.9999 11.6963 29.1637 11.6963 28.1323C11.6963 27.1005 12.5325 26.2643 13.5642 26.2643C14.5957 26.2643 15.4321 27.1005 15.4321 28.1323Z" fill="#4EF037"/>
</svg>
