<svg width="79" height="80" viewBox="0 0 79 80" fill="none" xmlns="http://www.w3.org/2000/svg">
<path fill-rule="evenodd" clip-rule="evenodd" d="M22.2529 39.9856C9.96294 39.9856 0 30.0226 0 17.7327V0.642578H39.343V39.9856H22.2529ZM9.14578 20.3142H33.1014C33.4276 24.1436 31.5867 31.8026 21.613 31.8026C11.6392 31.8026 9.14578 24.1436 9.14578 20.3142Z" fill="#1A1A1A"/>
<path fill-rule="evenodd" clip-rule="evenodd" d="M56.4652 39.9854C68.7551 39.9854 78.718 49.9483 78.718 62.2382V79.3283H39.375V39.9854H56.4652ZM68.9382 60.1542C69.066 61.6546 68.3973 63.911 66.8155 65.7993C65.2521 67.6655 62.8218 69.1405 59.453 69.1405C56.4306 69.1405 53.8426 67.6705 51.9968 65.7688C50.1322 63.8478 49.114 61.5816 49.114 60.1066H47.9918C47.9918 61.9796 49.2119 64.511 51.1915 66.5505C53.1898 68.6093 56.0519 70.2628 59.453 70.2628C63.1868 70.2628 65.9213 68.6143 67.6758 66.52C69.4117 64.4478 70.2138 61.9066 70.0564 60.0589L68.9382 60.1542Z" fill="#1A1A1A"/>
<path fill-rule="evenodd" clip-rule="evenodd" d="M78.718 39.9856H61.6278C49.3379 39.9856 39.375 30.0226 39.375 17.7327V0.642578H78.718V39.9856ZM49.7856 13.7349C49.2035 14.4283 48.9722 15.2426 49.0155 15.7502L48.1038 15.828C48.0363 15.0366 48.3769 13.9897 49.0849 13.1465C49.808 12.2853 50.9361 11.6091 52.4654 11.6091C53.8683 11.6091 55.0396 12.2894 55.8493 13.1217C56.6435 13.9381 57.1614 14.977 57.1614 15.7891L56.2464 15.7891C56.2464 15.3022 55.894 14.4799 55.1934 13.7598C54.5083 13.0555 53.5603 12.5241 52.4654 12.5241C51.2329 12.5241 50.3527 13.0596 49.7856 13.7349ZM63.039 15.7503C62.9958 15.2422 63.2264 14.4275 63.8062 13.7342C64.371 13.059 65.2471 12.5241 66.4735 12.5241C67.5629 12.5241 68.5065 13.0549 69.1889 13.7591C69.8865 14.479 70.2378 15.3016 70.2378 15.7891H71.1529C71.1529 14.9777 70.6373 13.939 69.846 13.1224C69.0394 12.29 67.8721 11.6091 66.4735 11.6091C64.9489 11.6091 63.8247 12.2859 63.1043 13.1472C62.3991 13.9905 62.06 15.0371 62.1273 15.8279L63.039 15.7503Z" fill="#22B34F"/>
<path fill-rule="evenodd" clip-rule="evenodd" d="M17.0902 39.9854H0V79.3283H39.343V62.2382C39.343 49.9483 29.3801 39.9854 17.0902 39.9854ZM16.4946 55.9829C16.4946 58.0122 14.8496 59.6573 12.8203 59.6573C10.791 59.6573 9.14592 58.0122 9.14592 55.9829C9.14592 53.9537 10.791 52.3086 12.8203 52.3086C14.8496 52.3086 16.4946 53.9537 16.4946 55.9829ZM30.3577 55.9829C30.3577 58.0122 28.7126 59.6573 26.6833 59.6573C24.654 59.6573 23.0089 58.0122 23.0089 55.9829C23.0089 53.9537 24.654 52.3086 26.6833 52.3086C28.7126 52.3086 30.3577 53.9537 30.3577 55.9829Z" fill="#22B34F"/>
</svg>
