<svg width="95" height="15" viewBox="0 0 95 15" fill="none" xmlns="http://www.w3.org/2000/svg">
<path d="M0.889893 14.4V0.955449H9.79181V3.29887H3.73246V6.50251H9.20097V8.84624H3.73246V14.4H0.889893ZM24.0588 7.6777C24.0588 9.14397 23.7809 10.3912 23.2251 11.4196C22.6736 12.4481 21.9209 13.2338 20.9668 13.7763C20.0171 14.3146 18.9492 14.5839 17.7631 14.5839C16.5683 14.5839 15.4961 14.3125 14.5464 13.77C13.5967 13.2272 12.8461 12.4417 12.2947 11.413C11.7432 10.3845 11.4675 9.13943 11.4675 7.6777C11.4675 6.21144 11.7432 4.96423 12.2947 3.93579C12.8461 2.90734 13.5967 2.12398 14.5464 1.5854C15.4961 1.04289 16.5683 0.771484 17.7631 0.771484C18.9492 0.771484 20.0171 1.04289 20.9668 1.5854C21.9209 2.12398 22.6736 2.90734 23.2251 3.93579C23.7809 4.96423 24.0588 6.21144 24.0588 7.6777ZM21.1768 7.6777C21.1768 6.72793 21.0346 5.92702 20.7501 5.27497C20.47 4.62293 20.074 4.12822 19.5619 3.79146C19.0499 3.45439 18.4502 3.28586 17.7631 3.28586C17.076 3.28586 16.4764 3.45439 15.9644 3.79146C15.4523 4.12822 15.0541 4.62293 14.7696 5.27497C14.4895 5.92702 14.3494 6.72793 14.3494 7.6777C14.3494 8.62748 14.4895 9.42838 14.7696 10.0804C15.0541 10.7325 15.4523 11.2272 15.9644 11.5639C16.4764 11.901 17.076 12.0695 17.7631 12.0695C18.4502 12.0695 19.0499 11.901 19.5619 11.5639C20.074 11.2272 20.47 10.7325 20.7501 10.0804C21.0346 9.42838 21.1768 8.62748 21.1768 7.6777ZM33.4579 4.82202C33.4055 4.29252 33.1801 3.88102 32.7819 3.58783C32.3834 3.29463 31.843 3.14789 31.1604 3.14789C30.6963 3.14789 30.3048 3.21355 29.9852 3.34486C29.6657 3.47194 29.4206 3.64895 29.25 3.87678C29.0836 4.10432 29.0005 4.36241 29.0005 4.65137C28.9917 4.89191 29.0421 5.1022 29.1515 5.28163C29.2653 5.46105 29.4206 5.61627 29.6176 5.74759C29.8145 5.87467 30.0421 5.98602 30.3002 6.08254C30.5586 6.17422 30.8343 6.25319 31.1275 6.31885L32.3353 6.6075C32.922 6.73882 33.4603 6.91401 33.9505 7.13277C34.4406 7.35153 34.8651 7.62082 35.224 7.94033C35.5828 8.25985 35.8606 8.63625 36.0576 9.06953C36.2591 9.50282 36.362 9.99934 36.3662 10.5597C36.362 11.3824 36.1517 12.0959 35.7359 12.6998C35.3247 13.2995 34.7293 13.7655 33.9505 14.098C33.1759 14.4263 32.2412 14.5906 31.1471 14.5906C30.0618 14.5906 29.1165 14.4242 28.3112 14.0916C27.5103 13.7588 26.8844 13.2665 26.4336 12.6145C25.9872 11.9579 25.7531 11.1461 25.7312 10.1788H28.4819C28.5125 10.6296 28.6416 11.006 28.8692 11.308C29.1012 11.6057 29.4097 11.8311 29.7948 11.9842C30.1843 12.1331 30.6243 12.2075 31.1144 12.2075C31.5958 12.2075 32.0137 12.1373 32.3683 11.9972C32.7272 11.8574 33.0049 11.6626 33.2019 11.413C33.3989 11.1636 33.4975 10.8771 33.4975 10.553C33.4975 10.2511 33.4076 9.99722 33.2282 9.79147C33.0533 9.58572 32.7949 9.41083 32.4536 9.26651C32.1166 9.12188 31.7029 8.99056 31.2128 8.87256L29.7489 8.50493C28.6153 8.22929 27.7203 7.79812 27.0639 7.21174C26.4074 6.62505 26.0813 5.83504 26.0857 4.84169C26.0813 4.02777 26.298 3.31642 26.7356 2.70825C27.1776 2.09978 27.7838 1.62504 28.5541 1.28344C29.3244 0.942136 30.1998 0.771484 31.1801 0.771484C32.178 0.771484 33.0488 0.942136 33.7928 1.28344C34.5411 1.62504 35.1232 2.09978 35.539 2.70825C35.9547 3.31642 36.1692 4.02111 36.1825 4.82202H33.4579ZM45.5717 4.82202C45.5193 4.29252 45.2939 3.88102 44.8957 3.58783C44.4972 3.29463 43.9568 3.14789 43.2739 3.14789C42.8101 3.14789 42.4186 3.21355 42.099 3.34486C41.7795 3.47194 41.5344 3.64895 41.3638 3.87678C41.1974 4.10432 41.1142 4.36241 41.1142 4.65137C41.1054 4.89191 41.1559 5.1022 41.2651 5.28163C41.3789 5.46105 41.5344 5.61627 41.7314 5.74759C41.9284 5.87467 42.1559 5.98602 42.414 6.08254C42.6724 6.17422 42.9481 6.25319 43.2412 6.31885L44.4491 6.6075C45.0355 6.73882 45.5741 6.91401 46.0642 7.13277C46.5544 7.35153 46.9789 7.62082 47.3378 7.94033C47.6966 8.25985 47.9744 8.63625 48.1714 9.06953C48.3729 9.50282 48.4757 9.99934 48.48 10.5597C48.4757 11.3824 48.2655 12.0959 47.8497 12.6998C47.4382 13.2995 46.8431 13.7655 46.0642 14.098C45.2894 14.4263 44.355 14.5906 43.2609 14.5906C42.1756 14.5906 41.2303 14.4242 40.4249 14.0916C39.624 13.7588 38.9983 13.2665 38.5474 12.6145C38.1008 11.9579 37.867 11.1461 37.8449 10.1788H40.5956C40.6261 10.6296 40.7553 11.006 40.9828 11.308C41.2149 11.6057 41.5235 11.8311 41.9087 11.9842C42.2981 12.1331 42.7381 12.2075 43.2282 12.2075C43.7096 12.2075 44.1275 12.1373 44.4821 11.9972C44.8409 11.8574 45.1187 11.6626 45.3157 11.413C45.5127 11.1636 45.6113 10.8771 45.6113 10.553C45.6113 10.2511 45.5214 9.99722 45.342 9.79147C45.1668 9.58572 44.9087 9.41083 44.5674 9.26651C44.2304 9.12188 43.8167 8.99056 43.3266 8.87256L41.8627 8.50493C40.729 8.22929 39.834 7.79812 39.1777 7.21174C38.5211 6.62505 38.1949 5.83504 38.1995 4.84169C38.1949 4.02777 38.4116 3.31642 38.8494 2.70825C39.2915 2.09978 39.8975 1.62504 40.6679 1.28344C41.4382 0.942136 42.3136 0.771484 43.2939 0.771484C44.2915 0.771484 45.1626 0.942136 45.9066 1.28344C46.6549 1.62504 47.237 2.09978 47.6527 2.70825C48.0685 3.31642 48.283 4.02111 48.296 4.82202H45.5717ZM66.5333 5.66226H63.6579C63.6053 5.2904 63.4982 4.95999 63.3363 4.67104C63.1744 4.37784 62.9662 4.12822 62.7127 3.92247C62.4588 3.71703 62.1653 3.55939 61.8328 3.44986C61.5045 3.34063 61.1478 3.28586 60.7629 3.28586C60.067 3.28586 59.4606 3.45863 58.9444 3.80447C58.428 4.14577 58.0274 4.64472 57.7429 5.3013C57.4585 5.95334 57.3163 6.74548 57.3163 7.6777C57.3163 8.63625 57.4585 9.44139 57.7429 10.0934C58.0319 10.7458 58.4343 11.2381 58.9508 11.5706C59.4673 11.9031 60.0646 12.0695 60.7429 12.0695C61.1239 12.0695 61.4761 12.0193 61.8001 11.9186C62.1281 11.8178 62.4192 11.6714 62.673 11.4786C62.9269 11.2816 63.1372 11.0432 63.3033 10.763C63.474 10.4831 63.5923 10.1636 63.6579 9.80478L66.5333 9.8178C66.4588 10.435 66.2728 11.0302 65.9753 11.6036C65.6821 12.1724 65.2861 12.6822 64.7871 13.1331C64.2924 13.5794 63.7015 13.934 63.0147 14.1966C62.3317 14.4547 61.5593 14.5839 60.6973 14.5839C59.4979 14.5839 58.4258 14.3125 57.4803 13.77C56.5393 13.2272 55.7953 12.4417 55.2482 11.413C54.7057 10.3845 54.4343 9.13943 54.4343 7.6777C54.4343 6.21144 54.7099 4.96423 55.2615 3.93579C55.8128 2.90734 56.5614 2.12398 57.5066 1.5854C58.4519 1.04289 59.5154 0.771484 60.6973 0.771484C61.4761 0.771484 62.1983 0.881018 62.8637 1.09978C63.5333 1.31854 64.1263 1.63805 64.6425 2.05833C65.159 2.47406 65.5793 2.98389 65.903 3.58783C66.2313 4.19176 66.4413 4.88314 66.5333 5.66226ZM71.3157 0.955449V14.4H68.5191V0.955449H71.3157ZM80.0222 10.1068V4.31642H82.8189V14.4H80.1339V12.5685H80.0289C79.8014 13.1594 79.4228 13.6341 78.8933 13.993C78.3681 14.3518 77.7269 14.5313 76.9696 14.5313C76.2958 14.5313 75.7027 14.3782 75.1908 14.072C74.6785 13.7655 74.2782 13.3301 73.9893 12.7655C73.7048 12.2009 73.5605 11.5246 73.556 10.737V4.31642H76.3526V10.2381C76.3569 10.8332 76.5166 11.3037 76.8319 11.6496C77.1469 11.9951 77.5693 12.1682 78.0988 12.1682C78.4359 12.1682 78.7508 12.0913 79.0443 11.9382C79.3375 11.7806 79.5738 11.5488 79.7533 11.2423C79.9369 10.9361 80.0268 10.5576 80.0222 10.1068ZM85.1085 14.4V0.955449H87.9052V6.01023H87.9905C88.113 5.73882 88.2903 5.46317 88.5221 5.18299C88.7584 4.89857 89.0649 4.66226 89.4413 4.47406C89.822 4.28163 90.2946 4.1851 90.8592 4.1851C91.5944 4.1851 92.2728 4.37784 92.8943 4.76302C93.5158 5.14366 94.0126 5.71915 94.3844 6.4895C94.7566 7.25531 94.9427 8.21598 94.9427 9.3715C94.9427 10.4962 94.7608 11.4459 94.3978 12.2205C94.0389 12.9909 93.5487 13.5751 92.9273 13.9733C92.31 14.3673 91.6186 14.5642 90.8528 14.5642C90.31 14.5642 89.8483 14.4744 89.4676 14.295C89.0912 14.1155 88.7826 13.8901 88.5418 13.619C88.3012 13.3431 88.1173 13.0653 87.9905 12.7851H87.8658V14.4H85.1085ZM87.8459 9.35818C87.8459 9.95788 87.9291 10.4807 88.0955 10.9273C88.2619 11.3736 88.5024 11.7216 88.8177 11.9712C89.1327 12.2163 89.5158 12.3388 89.9663 12.3388C90.4217 12.3388 90.8068 12.2139 91.1218 11.9645C91.4371 11.7107 91.6755 11.3606 91.8374 10.914C92.0038 10.4635 92.0867 9.94487 92.0867 9.35818C92.0867 8.77634 92.0059 8.26408 91.844 7.82203C91.6822 7.37997 91.4434 7.03443 91.1285 6.78481C90.8132 6.53549 90.4259 6.41083 89.9663 6.41083C89.5112 6.41083 89.126 6.53095 88.8111 6.7718C88.5003 7.01234 88.2619 7.35395 88.0955 7.796C87.9291 8.23776 87.8459 8.75879 87.8459 9.35818Z" fill="#F6FAF7"/>
</svg>
