<svg width="155" height="154" viewBox="0 0 155 154" fill="none" xmlns="http://www.w3.org/2000/svg">
<path fill-rule="evenodd" clip-rule="evenodd" d="M44.032 76.7057C20.071 76.7057 0.646484 57.2813 0.646484 33.3201L0.646484 0L77.352 0L77.352 76.7057H44.032ZM18.4786 38.3526L65.184 38.3526C65.82 45.8188 62.231 60.7512 42.785 60.7512C23.34 60.7512 18.4786 45.8188 18.4786 38.3526Z" fill="#F6FAF7"/>
<path fill-rule="evenodd" clip-rule="evenodd" d="M154.058 76.7057H120.738C96.7771 76.7057 77.3521 57.2813 77.3521 33.3201L77.3521 0L154.058 0V76.7057ZM97.6501 25.5259C96.5151 26.8777 96.064 28.4654 96.148 29.4549L94.371 29.6067C94.239 28.0637 94.9031 26.0227 96.2831 24.3787C97.6931 22.6996 99.8931 21.3812 102.874 21.3812C105.609 21.3812 107.893 22.7076 109.472 24.3303C111.02 25.9221 112.03 27.9475 112.03 29.5308H110.246C110.246 28.5816 109.559 26.9783 108.193 25.5743C106.857 24.2013 105.009 23.1652 102.874 23.1652C100.471 23.1652 98.7551 24.2093 97.6501 25.5259ZM123.489 29.4552C123.405 28.4645 123.855 26.8762 124.985 25.5246C126.086 24.2081 127.794 23.1652 130.185 23.1652C132.309 23.1652 134.149 24.2001 135.479 25.573C136.839 26.9766 137.524 28.5803 137.524 29.5308H139.308C139.308 27.9488 138.303 25.9237 136.76 24.3316C135.188 22.7088 132.912 21.3812 130.185 21.3812C127.213 21.3812 125.021 22.7008 123.616 24.3801C122.241 26.0242 121.58 28.0647 121.712 29.6064L123.489 29.4552Z" fill="#4EF037"/>
<path fill-rule="evenodd" clip-rule="evenodd" d="M33.967 76.7057L0.646484 76.7057L0.646484 153.412H77.352V120.092C77.352 96.1301 57.928 76.7057 33.967 76.7057ZM32.804 107.896C32.804 111.852 29.597 115.059 25.64 115.059C21.684 115.059 18.4766 111.852 18.4766 107.896C18.4766 103.939 21.684 100.732 25.64 100.732C29.597 100.732 32.804 103.939 32.804 107.896ZM59.833 107.896C59.833 111.852 56.625 115.059 52.669 115.059C48.712 115.059 45.505 111.852 45.505 107.896C45.505 103.939 48.712 100.732 52.669 100.732C56.625 100.732 59.833 103.939 59.833 107.896Z" fill="#4EF037"/>
<path fill-rule="evenodd" clip-rule="evenodd" d="M110.672 76.7057C134.633 76.7057 154.058 96.1301 154.058 120.092V153.412H77.3521L77.3521 76.7057L110.672 76.7057ZM134.99 116.028C135.24 118.953 133.936 123.353 130.852 127.034C127.804 130.673 123.065 133.548 116.497 133.548C110.605 133.548 105.559 130.682 101.96 126.975C98.3251 123.229 96.34 118.811 96.34 115.935H94.1521C94.1521 119.587 96.531 124.522 100.39 128.499C104.286 132.513 109.866 135.736 116.497 135.736C123.777 135.736 129.109 132.522 132.529 128.439C135.914 124.399 137.477 119.445 137.171 115.842L134.99 116.028Z" fill="#F6FAF7"/>
</svg>
