<svg width="154" height="154" viewBox="0 0 154 154" fill="none" xmlns="http://www.w3.org/2000/svg">
<path fill-rule="evenodd" clip-rule="evenodd" d="M43.7971 76.7057C19.8361 76.7057 0.411621 57.2813 0.411621 33.3201V0H77.1171V76.7057H43.7971ZM18.2437 38.3526H64.9491C65.5851 45.8188 61.9961 60.7512 42.5501 60.7512C23.1051 60.7512 18.2437 45.8188 18.2437 38.3526Z" fill="#F6FAF7"/>
<path fill-rule="evenodd" clip-rule="evenodd" d="M77.1172 -1.52588e-05L110.437 -1.52588e-05C134.398 -1.52588e-05 153.823 19.4244 153.823 43.3856V76.7057L77.1172 76.7057L77.1172 -1.52588e-05ZM133.525 51.1798C134.66 49.828 135.111 48.2403 135.027 47.2508L136.804 47.099C136.936 48.642 136.272 50.683 134.892 52.327C133.482 54.0061 131.282 55.3245 128.301 55.3245C125.566 55.3245 123.282 53.9981 121.703 52.3754C120.155 50.7836 119.145 48.7582 119.145 47.1749H120.929C120.929 48.1241 121.616 49.7274 122.982 51.1314C124.318 52.5044 126.166 53.5405 128.301 53.5405C130.704 53.5405 132.42 52.4964 133.525 51.1798ZM107.686 47.2505C107.77 48.2412 107.32 49.8295 106.19 51.1811C105.089 52.4976 103.381 53.5405 100.99 53.5405C98.8662 53.5405 97.0262 52.5056 95.6962 51.1327C94.3362 49.7291 93.6512 48.1254 93.6512 47.1749H91.8672C91.8672 48.7569 92.8722 50.782 94.4152 52.3741C95.9872 53.9969 98.2632 55.3245 100.99 55.3245C103.962 55.3245 106.154 54.0049 107.559 52.3256C108.934 50.6815 109.595 48.641 109.463 47.0993L107.686 47.2505Z" fill="#4EF037"/>
<path fill-rule="evenodd" clip-rule="evenodd" d="M43.7967 153.412H77.1172L77.1172 76.7057L0.411682 76.7057L0.411682 110.026C0.411682 133.987 19.8357 153.412 43.7967 153.412ZM44.9597 122.222C44.9597 118.266 48.1667 115.059 52.1237 115.059C56.0797 115.059 59.2871 118.266 59.2871 122.222C59.2871 126.179 56.0797 129.386 52.1237 129.386C48.1667 129.386 44.9597 126.179 44.9597 122.222ZM17.9307 122.222C17.9307 118.266 21.1387 115.059 25.0947 115.059C29.0517 115.059 32.2587 118.266 32.2587 122.222C32.2587 126.179 29.0517 129.386 25.0947 129.386C21.1387 129.386 17.9307 126.179 17.9307 122.222Z" fill="#4EF037"/>
<path fill-rule="evenodd" clip-rule="evenodd" d="M110.437 76.7057C134.398 76.7057 153.823 96.1301 153.823 120.092V153.412H77.1172V76.7057H110.437ZM134.755 116.028C135.005 118.953 133.701 123.353 130.617 127.034C127.569 130.673 122.83 133.548 116.262 133.548C110.37 133.548 105.324 130.682 101.725 126.975C98.0902 123.229 96.1052 118.811 96.1052 115.935H93.9172C93.9172 119.587 96.2962 124.522 100.155 128.499C104.051 132.513 109.631 135.736 116.262 135.736C123.542 135.736 128.874 132.522 132.294 128.439C135.679 124.399 137.242 119.445 136.936 115.842L134.755 116.028Z" fill="#F6FAF7"/>
</svg>
