<svg width="155" height="154" viewBox="0 0 155 154" fill="none" xmlns="http://www.w3.org/2000/svg">
<path fill-rule="evenodd" clip-rule="evenodd" d="M34.1433 -1.52588e-05C58.1043 -1.52588e-05 77.5288 19.4244 77.5288 43.3856V76.7057L0.823303 76.7057L0.823303 -1.52588e-05L34.1433 -1.52588e-05ZM59.6967 38.3531L12.9913 38.3531C12.3553 30.8869 15.9443 15.9545 35.3903 15.9545C54.8353 15.9545 59.6967 30.8869 59.6967 38.3531Z" fill="#F6FAF7"/>
<path fill-rule="evenodd" clip-rule="evenodd" d="M77.5289 -1.52588e-05L110.849 -1.52588e-05C134.81 -1.52588e-05 154.235 19.4244 154.235 43.3856V76.7057L77.5289 76.7057L77.5289 -1.52588e-05ZM133.937 51.1798C135.072 49.828 135.523 48.2403 135.439 47.2508L137.216 47.099C137.348 48.642 136.684 50.683 135.304 52.327C133.894 54.0061 131.694 55.3245 128.713 55.3245C125.978 55.3245 123.694 53.9981 122.115 52.3754C120.567 50.7836 119.557 48.7582 119.557 47.1749H121.341C121.341 48.1241 122.028 49.7274 123.394 51.1314C124.73 52.5044 126.578 53.5405 128.713 53.5405C131.116 53.5405 132.832 52.4964 133.937 51.1798ZM108.098 47.2505C108.182 48.2412 107.732 49.8295 106.602 51.1811C105.501 52.4976 103.793 53.5405 101.402 53.5405C99.2779 53.5405 97.4379 52.5056 96.1079 51.1327C94.7479 49.7291 94.0629 48.1254 94.0629 47.1749H92.2789C92.2789 48.7569 93.2839 50.782 94.8269 52.3741C96.3989 53.9969 98.6749 55.3245 101.402 55.3245C104.374 55.3245 106.566 54.0049 107.971 52.3256C109.346 50.6815 110.007 48.641 109.875 47.0993L108.098 47.2505Z" fill="#4EF037"/>
<path fill-rule="evenodd" clip-rule="evenodd" d="M44.2083 153.412H77.5288L77.5288 76.7057L0.823303 76.7057L0.823303 110.026C0.823303 133.987 20.2473 153.412 44.2083 153.412ZM45.3713 122.222C45.3713 118.266 48.5783 115.059 52.5353 115.059C56.4913 115.059 59.6987 118.266 59.6987 122.222C59.6987 126.179 56.4913 129.386 52.5353 129.386C48.5783 129.386 45.3713 126.179 45.3713 122.222ZM18.3423 122.222C18.3423 118.266 21.5503 115.059 25.5063 115.059C29.4633 115.059 32.6703 118.266 32.6703 122.222C32.6703 126.179 29.4633 129.386 25.5063 129.386C21.5503 129.386 18.3423 126.179 18.3423 122.222Z" fill="#4EF037"/>
<path fill-rule="evenodd" clip-rule="evenodd" d="M120.915 153.412C96.9539 153.412 77.5289 133.987 77.5289 110.026L77.5289 76.7057L154.235 76.7057V153.412H120.915ZM96.5969 114.09C96.3469 111.165 97.6509 106.765 100.735 103.084C103.783 99.4447 108.522 96.5697 115.09 96.5697C120.982 96.5697 126.028 99.4357 129.627 103.143C133.262 106.889 135.247 111.307 135.247 114.183H137.435C137.435 110.531 135.056 105.596 131.197 101.619C127.301 97.6047 121.721 94.3817 115.09 94.3817C107.81 94.3817 102.478 97.5957 99.0579 101.679C95.6729 105.719 94.1099 110.673 94.4159 114.276L96.5969 114.09Z" fill="#F6FAF7"/>
</svg>
