<svg width="154" height="154" viewBox="0 0 154 154" fill="none" xmlns="http://www.w3.org/2000/svg">
<path fill-rule="evenodd" clip-rule="evenodd" d="M43.3855 76.7057C19.4245 76.7057 0 57.2813 0 33.3201V0H76.7055V76.7057H43.3855ZM17.8321 38.3526H64.5375C65.1735 45.8188 61.5845 60.7512 42.1385 60.7512C22.6935 60.7512 17.8321 45.8188 17.8321 38.3526Z" fill="#F6FAF7"/>
<path fill-rule="evenodd" clip-rule="evenodd" d="M153.412 76.7057H120.092C96.1306 76.7057 76.7056 57.2813 76.7056 33.3201V0H153.412V76.7057ZM97.0036 25.5259C95.8686 26.8777 95.4176 28.4654 95.5016 29.4549L93.7246 29.6067C93.5926 28.0637 94.2566 26.0227 95.6366 24.3787C97.0466 22.6996 99.2466 21.3812 102.228 21.3812C104.963 21.3812 107.247 22.7076 108.826 24.3303C110.374 25.9221 111.384 27.9475 111.384 29.5308H109.6C109.6 28.5816 108.913 26.9783 107.547 25.5743C106.211 24.2013 104.363 23.1652 102.228 23.1652C99.8246 23.1652 98.1086 24.2093 97.0036 25.5259ZM122.843 29.4552C122.759 28.4645 123.209 26.8762 124.339 25.5246C125.44 24.2081 127.148 23.1652 129.539 23.1652C131.663 23.1652 133.503 24.2001 134.833 25.573C136.193 26.9766 136.878 28.5803 136.878 29.5308H138.662C138.662 27.9488 137.657 25.9237 136.114 24.3316C134.542 22.7088 132.266 21.3812 129.539 21.3812C126.567 21.3812 124.375 22.7008 122.97 24.3801C121.595 26.0242 120.934 28.0647 121.066 29.6064L122.843 29.4552Z" fill="#4EF037"/>
<path fill-rule="evenodd" clip-rule="evenodd" d="M33.3205 76.7057H0V153.412H76.7055V120.092C76.7055 96.1301 57.2815 76.7057 33.3205 76.7057ZM32.1575 107.896C32.1575 111.852 28.9505 115.059 24.9935 115.059C21.0375 115.059 17.8301 111.852 17.8301 107.896C17.8301 103.939 21.0375 100.732 24.9935 100.732C28.9505 100.732 32.1575 103.939 32.1575 107.896ZM59.1865 107.896C59.1865 111.852 55.9785 115.059 52.0225 115.059C48.0655 115.059 44.8585 111.852 44.8585 107.896C44.8585 103.939 48.0655 100.732 52.0225 100.732C55.9785 100.732 59.1865 103.939 59.1865 107.896Z" fill="#4EF037"/>
<path fill-rule="evenodd" clip-rule="evenodd" d="M110.026 76.7057C133.987 76.7057 153.412 96.1301 153.412 120.092V153.412H76.7056V76.7057H110.026ZM134.344 116.028C134.594 118.953 133.29 123.353 130.206 127.034C127.158 130.673 122.419 133.548 115.851 133.548C109.959 133.548 104.913 130.682 101.314 126.975C97.6786 123.229 95.6936 118.811 95.6936 115.935H93.5056C93.5056 119.587 95.8846 124.522 99.7436 128.499C103.64 132.513 109.22 135.736 115.851 135.736C123.131 135.736 128.463 132.522 131.883 128.439C135.268 124.399 136.831 119.445 136.525 115.842L134.344 116.028Z" fill="#F6FAF7"/>
</svg>
