<svg width="154" height="154" viewBox="0 0 154 154" fill="none" xmlns="http://www.w3.org/2000/svg">
<path fill-rule="evenodd" clip-rule="evenodd" d="M33.5549 -1.52588e-05C57.5159 -1.52588e-05 76.9404 19.4244 76.9404 43.3856V76.7057L0.234924 76.7057L0.234924 -1.52588e-05L33.5549 -1.52588e-05ZM59.1083 38.3531L12.4029 38.3531C11.7669 30.8869 15.3559 15.9545 34.8019 15.9545C54.2469 15.9545 59.1083 30.8869 59.1083 38.3531Z" fill="#F6FAF7"/>
<path fill-rule="evenodd" clip-rule="evenodd" d="M153.646 76.7057H120.326C96.3654 76.7057 76.9404 57.2813 76.9404 33.3201L76.9404 0L153.646 0V76.7057ZM97.2384 25.5259C96.1034 26.8777 95.6524 28.4654 95.7364 29.4549L93.9594 29.6067C93.8274 28.0637 94.4914 26.0227 95.8714 24.3787C97.2814 22.6996 99.4814 21.3812 102.462 21.3812C105.197 21.3812 107.481 22.7076 109.06 24.3303C110.608 25.9221 111.618 27.9475 111.618 29.5308H109.834C109.834 28.5816 109.147 26.9783 107.781 25.5743C106.445 24.2013 104.597 23.1652 102.462 23.1652C100.059 23.1652 98.3434 24.2093 97.2384 25.5259ZM123.077 29.4552C122.993 28.4645 123.443 26.8762 124.573 25.5246C125.674 24.2081 127.382 23.1652 129.773 23.1652C131.897 23.1652 133.737 24.2001 135.067 25.573C136.427 26.9766 137.112 28.5803 137.112 29.5308H138.896C138.896 27.9488 137.891 25.9237 136.348 24.3316C134.776 22.7088 132.5 21.3812 129.773 21.3812C126.801 21.3812 124.609 22.7008 123.204 24.3801C121.829 26.0242 121.168 28.0647 121.3 29.6064L123.077 29.4552Z" fill="#4EF037"/>
<path fill-rule="evenodd" clip-rule="evenodd" d="M33.5554 76.7057L0.234863 76.7057L0.234863 153.412H76.9404V120.092C76.9404 96.1301 57.5164 76.7057 33.5554 76.7057ZM32.3924 107.896C32.3924 111.852 29.1854 115.059 25.2284 115.059C21.2724 115.059 18.065 111.852 18.065 107.896C18.065 103.939 21.2724 100.732 25.2284 100.732C29.1854 100.732 32.3924 103.939 32.3924 107.896ZM59.4214 107.896C59.4214 111.852 56.2134 115.059 52.2574 115.059C48.3004 115.059 45.0934 111.852 45.0934 107.896C45.0934 103.939 48.3004 100.732 52.2574 100.732C56.2134 100.732 59.4214 103.939 59.4214 107.896Z" fill="#4EF037"/>
<path fill-rule="evenodd" clip-rule="evenodd" d="M120.326 153.412C96.3655 153.412 76.9405 133.987 76.9405 110.026L76.9405 76.7057L153.646 76.7057V153.412H120.326ZM96.0085 114.09C95.7585 111.165 97.0625 106.765 100.146 103.084C103.194 99.4447 107.933 96.5697 114.501 96.5697C120.393 96.5697 125.439 99.4357 129.038 103.143C132.673 106.889 134.658 111.307 134.658 114.183H136.846C136.846 110.531 134.467 105.596 130.608 101.619C126.712 97.6047 121.132 94.3817 114.501 94.3817C107.221 94.3817 101.889 97.5957 98.4695 101.679C95.0845 105.719 93.5215 110.673 93.8275 114.276L96.0085 114.09Z" fill="#F6FAF7"/>
</svg>
